<?xml version="1.0" encoding="UTF-8" standalone="no"?>
<!-- Generator: Adobe Illustrator 19.0.0, SVG Export Plug-In . SVG Version: 6.00 Build 0)  -->

<svg
   xmlns:dc="http://purl.org/dc/elements/1.1/"
   xmlns:cc="http://creativecommons.org/ns#"
   xmlns:rdf="http://www.w3.org/1999/02/22-rdf-syntax-ns#"
   xmlns:svg="http://www.w3.org/2000/svg"
   xmlns="http://www.w3.org/2000/svg"
   xmlns:sodipodi="http://sodipodi.sourceforge.net/DTD/sodipodi-0.dtd"
   xmlns:inkscape="http://www.inkscape.org/namespaces/inkscape"
   version="1.1"
   id="Capa_1"
   x="0px"
   y="0px"
   viewBox="0 0 29.731 29.731"
   style="enable-background:new 0 0 29.731 29.731;"
   xml:space="preserve"
   sodipodi:docname="phone-call.svg"
   inkscape:version="0.92.2 (5c3e80d, 2017-08-06)"><metadata
     id="metadata41"><rdf:RDF><cc:Work
         rdf:about=""><dc:format>image/svg+xml</dc:format><dc:type
           rdf:resource="http://purl.org/dc/dcmitype/StillImage" /></cc:Work></rdf:RDF></metadata><defs
     id="defs39" /><sodipodi:namedview
     pagecolor="#ffffff"
     bordercolor="#666666"
     borderopacity="1"
     objecttolerance="10"
     gridtolerance="10"
     guidetolerance="10"
     inkscape:pageopacity="0"
     inkscape:pageshadow="2"
     inkscape:window-width="640"
     inkscape:window-height="480"
     id="namedview37"
     showgrid="false"
     inkscape:zoom="7.9378424"
     inkscape:cx="14.8655"
     inkscape:cy="14.8655"
     inkscape:window-x="0"
     inkscape:window-y="0"
     inkscape:window-maximized="0"
     inkscape:current-layer="Capa_1" /><g
     id="g4"><path
       d="m 23.895,29.731 c -1.237,0 -2.731,-0.31 -4.374,-0.93 C 15.919,27.443 12,24.759 8.486,21.245 4.971,17.73 2.287,13.81 0.928,10.208 -0.307,6.933 -0.31,4.245 0.921,3.015 1.098,2.838 1.278,2.648 1.464,2.452 2.587,1.271 3.856,-0.058 5.538,0.002 6.697,0.05 7.82,0.77 8.97,2.201 12.368,6.427 10.836,7.933 9.063,9.679 L 8.75,9.989 c -0.29,0.29 -0.838,1.633 4.26,6.731 1.664,1.664 3.083,2.882 4.217,3.619 0.714,0.464 1.991,1.166 2.515,0.642 l 0.315,-0.318 c 1.744,-1.769 3.25,-3.296 7.473,0.099 1.431,1.15 2.15,2.272 2.198,3.433 0.069,1.681 -1.27,2.953 -2.452,4.075 -0.195,0.186 -0.385,0.366 -0.562,0.542 -0.611,0.612 -1.588,0.919 -2.819,0.919 z M 5.418,1 C 4.223,1 3.144,2.136 2.189,3.141 1.997,3.343 1.811,3.539 1.628,3.722 0.711,4.638 0.804,7.045 1.864,9.856 c 1.31,3.472 3.913,7.266 7.33,10.683 3.416,3.415 7.208,6.018 10.681,7.327 2.811,1.062 5.218,1.152 6.133,0.237 0.183,-0.183 0.379,-0.369 0.581,-0.56 1.027,-0.976 2.192,-2.082 2.141,-3.309 -0.035,-0.843 -0.649,-1.75 -1.825,-2.695 -3.519,-2.83 -4.503,-1.831 -6.135,-0.176 l -0.32,0.323 c -0.78,0.781 -2.047,0.608 -3.767,-0.51 C 15.49,20.4 14.016,19.138 12.304,17.425 8.073,13.195 6.72,10.606 8.044,9.279 L 8.363,8.964 C 10.022,7.332 11.023,6.347 8.192,2.826 7.245,1.651 6.339,1.037 5.496,1.001 5.47,1 5.444,1 5.418,1 Z"
       id="path2"
       inkscape:connector-curvature="0" /></g><g
     id="g6" /><g
     id="g8" /><g
     id="g10" /><g
     id="g12" /><g
     id="g14" /><g
     id="g16" /><g
     id="g18" /><g
     id="g20" /><g
     id="g22" /><g
     id="g24" /><g
     id="g26" /><g
     id="g28" /><g
     id="g30" /><g
     id="g32" /><g
     id="g34" /></svg>