<?xml version="1.0" encoding="UTF-8" standalone="no"?>
<!-- Generator: Adobe Illustrator 19.0.0, SVG Export Plug-In . SVG Version: 6.00 Build 0)  -->

<svg
   xmlns:dc="http://purl.org/dc/elements/1.1/"
   xmlns:cc="http://creativecommons.org/ns#"
   xmlns:rdf="http://www.w3.org/1999/02/22-rdf-syntax-ns#"
   xmlns:svg="http://www.w3.org/2000/svg"
   xmlns="http://www.w3.org/2000/svg"
   xmlns:sodipodi="http://sodipodi.sourceforge.net/DTD/sodipodi-0.dtd"
   xmlns:inkscape="http://www.inkscape.org/namespaces/inkscape"
   version="1.1"
   id="Layer_1"
   x="0px"
   y="0px"
   viewBox="0 0 20 36"
   xml:space="preserve"
   sodipodi:docname="mark.svg"
   inkscape:version="0.92.2 (5c3e80d, 2017-08-06)"
   width="20"
   height="36"><metadata
     id="metadata43"><rdf:RDF><cc:Work
         rdf:about=""><dc:format>image/svg+xml</dc:format><dc:type
           rdf:resource="http://purl.org/dc/dcmitype/StillImage" /><dc:title></dc:title></cc:Work></rdf:RDF></metadata><defs
     id="defs41" /><sodipodi:namedview
     pagecolor="#ffffff"
     bordercolor="#666666"
     borderopacity="1"
     objecttolerance="10"
     gridtolerance="10"
     guidetolerance="10"
     inkscape:pageopacity="0"
     inkscape:pageshadow="2"
     inkscape:window-width="1920"
     inkscape:window-height="1017"
     id="namedview39"
     showgrid="false"
     inkscape:zoom="10.429825"
     inkscape:cx="10.882087"
     inkscape:cy="16"
     inkscape:window-x="-8"
     inkscape:window-y="-8"
     inkscape:window-maximized="1"
     inkscape:current-layer="Layer_1" /><g
     id="g8"
     transform="translate(0,-476)" /><g
     id="g10"
     transform="translate(0,-476)" /><g
     id="g12"
     transform="translate(0,-476)" /><g
     id="g14"
     transform="translate(0,-476)" /><g
     id="g16"
     transform="translate(0,-476)" /><g
     id="g18"
     transform="translate(0,-476)" /><g
     id="g20"
     transform="translate(0,-476)" /><g
     id="g22"
     transform="translate(0,-476)" /><g
     id="g24"
     transform="translate(0,-476)" /><g
     id="g26"
     transform="translate(0,-476)" /><g
     id="g28"
     transform="translate(0,-476)" /><g
     id="g30"
     transform="translate(0,-476)" /><g
     id="g32"
     transform="translate(0,-476)" /><g
     id="g34"
     transform="translate(0,-476)" /><g
     id="g36"
     transform="translate(0,-476)" /><path
     style="fill:#1fa349;fill-opacity:1;stroke-width:0.12225961"
     d="M 9.6448103,33.118823 C 9.0481312,32.581254 6.3658664,28.662758 5.0184266,26.360185 1.5007232,20.348955 0.0686034,15.833595 0.53099088,12.21165 1.0058101,8.4923226 3.0012334,5.3815038 5.9610107,3.7463773 7.5343546,2.8771842 8.2010514,2.712055 10.137008,2.712055 c 1.978733,0 2.626922,0.1674607 4.283945,1.1067671 4.240869,2.4039943 6.273491,7.6309999 5.027223,12.9277909 -0.955967,4.062967 -3.578272,9.183827 -7.559656,14.762561 -1.385024,1.9407 -1.658494,2.136892 -2.2437097,1.609649 z M 11.611718,19.135991 c 1.384913,-0.493688 2.341837,-1.452014 3.016031,-3.020455 0.345788,-0.804444 0.364396,-0.924714 0.364396,-2.355192 0,-1.42304 -0.02036,-1.556716 -0.363847,-2.387162 C 14.131539,10.172122 13.374057,9.27874 12.371084,8.7109903 9.8173489,7.2654073 6.8606162,8.4358094 5.6457163,11.373182 c -0.3434722,0.830446 -0.3638471,0.964122 -0.3638471,2.387162 0,1.430478 0.018609,1.550748 0.3643973,2.355192 0.4585006,1.066654 1.0109281,1.809963 1.7475147,2.351335 1.2235778,0.899299 2.8489238,1.157137 4.2179368,0.66912 z"
     id="path45"
     inkscape:connector-curvature="0" /></svg>