<?xml version="1.0" encoding="UTF-8" standalone="no"?>
<!-- Created with Inkscape (http://www.inkscape.org/) -->

<svg
   xmlns:dc="http://purl.org/dc/elements/1.1/"
   xmlns:cc="http://creativecommons.org/ns#"
   xmlns:rdf="http://www.w3.org/1999/02/22-rdf-syntax-ns#"
   xmlns:svg="http://www.w3.org/2000/svg"
   xmlns="http://www.w3.org/2000/svg"
   xmlns:sodipodi="http://sodipodi.sourceforge.net/DTD/sodipodi-0.dtd"
   xmlns:inkscape="http://www.inkscape.org/namespaces/inkscape"
   width="25"
   height="17"
   viewBox="0 0 6.6145833 4.4979169"
   version="1.1"
   id="svg8"
   inkscape:version="0.92.2 (5c3e80d, 2017-08-06)"
   sodipodi:docname="master.svg"
  fill="#ffffff">
  <defs
     id="defs2" />
  <sodipodi:namedview
     id="base"
     pagecolor="#ffffff"
     bordercolor="#666666"
     borderopacity="1.0"
     inkscape:pageopacity="0.0"
     inkscape:pageshadow="2"
     inkscape:zoom="31.678384"
     inkscape:cx="20.920812"
     inkscape:cy="6.5738105"
     inkscape:document-units="mm"
     inkscape:current-layer="layer1"
     showgrid="false"
     units="px"
     inkscape:window-width="1920"
     inkscape:window-height="1017"
     inkscape:window-x="-8"
     inkscape:window-y="-8"
     inkscape:window-maximized="1" />
  <metadata
     id="metadata5">
    <rdf:RDF>
      <cc:Work
         rdf:about="">
        <dc:format>image/svg+xml</dc:format>
        <dc:type
           rdf:resource="http://purl.org/dc/dcmitype/StillImage" />
        <dc:title></dc:title>
      </cc:Work>
    </rdf:RDF>
  </metadata>
  <g
     inkscape:label="Layer 1"
     inkscape:groupmode="layer"
     id="layer1"
     transform="translate(0,-292.50206)">
    <g
       id="g234"
       transform="matrix(0.1359697,0,0,0.15349772,0.0131969,291.03279)">
      <g
         id="g105">
        <g
           id="g103">
          <path
             id="path101"
             d="m 33.933,9.716 c -3.741,0.001 -7.151,1.419 -9.721,3.748 -2.572,-2.326 -5.98,-3.745 -9.717,-3.745 -0.031,0 -0.063,0 -0.093,0 C 6.444,9.771 0,16.245 0,24.214 c 0,8.001 6.494,14.494 14.494,14.494 3.737,0 7.145,-1.417 9.716,-3.745 -0.537,-0.485 -1.023,-1.022 -1.482,-1.584 h 2.993 c -0.451,0.553 -0.943,1.071 -1.472,1.553 h -0.002 c -0.012,0.013 -0.025,0.021 -0.037,0.032 2.573,2.33 5.985,3.75 9.728,3.749 8.005,-0.003 14.492,-6.495 14.49,-14.499 0,-0.003 0,-0.005 0,-0.007 C 48.429,16.203 41.938,9.714 33.933,9.716 Z m -11.039,5.245 h 2.755 c 0.406,0.492 0.783,1.01 1.125,1.552 h -4.915 c 0.317,-0.518 0.665,-1.051 1.035,-1.552 z m -1.891,3.074 h 6.607 c 0.235,0.502 0.443,1.021 0.625,1.553 H 20.22 c 0.08,-0.15 0.36,-0.754 0.783,-1.553 z M 5.917,27.906 6.796,22.364 4.813,27.906 H 3.75 L 3.612,22.364 2.673,27.906 H 1.184 l 1.234,-7.35 H 4.67 l 0.079,4.51 1.521,-4.51 h 2.443 l -1.217,7.35 z m 5.265,-0.012 0.051,-0.587 c -0.024,0.003 -0.494,0.709 -1.583,0.709 -0.57,0 -1.49,-0.311 -1.49,-1.663 0,-1.719 1.402,-2.289 2.737,-2.289 0.21,0 0.663,0.038 0.663,0.038 0,0 0.051,-0.105 0.051,-0.389 0,-0.467 -0.42,-0.531 -0.995,-0.531 -1.013,0 -1.682,0.271 -1.682,0.271 l 0.224,-1.33 c 0,0 0.812,-0.34 1.869,-0.34 0.547,0 2.12,0.058 2.12,1.861 l -0.606,4.25 z m 5.743,-1.872 c 0,2.051 -1.987,1.963 -2.334,1.963 -1.295,0 -1.695,-0.179 -1.732,-0.189 l 0.206,-1.35 c 0.002,-0.012 0.65,0.235 1.371,0.235 0.416,0 0.956,-0.041 0.956,-0.538 0,-0.744 -1.932,-0.566 -1.932,-2.333 0,-1.559 1.158,-2.015 2.3,-2.015 0.882,0 1.424,0.121 1.424,0.121 l -0.195,1.362 c 0,0 -0.837,-0.069 -1.054,-0.069 -0.549,0 -0.848,0.12 -0.848,0.504 -10e-4,0.772 1.838,0.394 1.838,2.309 z m 2.386,0.538 c 0.137,0 0.292,-0.047 0.398,-0.047 l -0.193,1.311 c -0.155,0.043 -0.594,0.199 -1.157,0.203 -0.719,0.006 -1.23,-0.396 -1.23,-1.308 0,-0.612 0.877,-5.655 0.911,-5.688 h 1.543 l -0.157,0.902 h 0.77 l -0.197,1.453 h -0.817 l -0.434,2.677 c -0.033,0.213 0.026,0.497 0.563,0.497 z m 3.394,-4.797 c 1.694,0 2.201,1.24 2.201,2.257 0,0.407 -0.204,1.407 -0.204,1.407 h -3.136 c 0,0 -0.29,1.235 1.367,1.235 0.777,0 1.639,-0.38 1.639,-0.38 L 24.3,27.769 c 0,0 -0.498,0.254 -1.63,0.254 -1.227,0 -2.666,-0.519 -2.666,-2.699 10e-4,-1.889 1.149,-3.561 2.701,-3.561 z m 4.087,10.123 H 21.65 c -0.313,-0.5 -0.605,-1.013 -0.856,-1.552 h 6.843 c -0.252,0.536 -0.534,1.054 -0.845,1.552 z m -0.345,-3.969 h -1.584 l 0.963,-5.982 h 1.437 l -0.138,0.867 c 0,0 0.512,-0.943 1.203,-0.943 0.201,0 0.298,0.02 0.298,0.02 -0.205,0.418 -0.386,0.801 -0.574,1.79 -1.072,-0.38 -1.154,1.693 -1.605,4.248 z m 6.035,-0.093 c 0,0 -0.83,0.212 -1.35,0.212 -1.842,0 -2.777,-1.271 -2.777,-3.196 0,-2.903 1.733,-4.449 3.514,-4.449 0.805,0 1.738,0.378 1.738,0.378 l -0.252,1.635 c 0,0 -0.631,-0.441 -1.416,-0.441 -1.05,0 -1.992,1.002 -1.992,2.823 0,0.897 0.439,1.733 1.535,1.733 0.521,0 1.276,-0.379 1.276,-0.379 z m 3.715,0.073 0.052,-0.591 c -0.025,0.003 -0.495,0.709 -1.583,0.709 -0.57,0 -1.49,-0.311 -1.49,-1.663 0,-1.719 1.402,-2.289 2.736,-2.289 0.21,0 0.664,0.038 0.664,0.038 0,0 0.052,-0.104 0.052,-0.388 0,-0.467 -0.42,-0.531 -0.996,-0.531 -1.013,0 -1.681,0.271 -1.681,0.271 l 0.224,-1.33 c 0,0 0.812,-0.34 1.87,-0.34 0.546,0 2.12,0.058 2.119,1.861 l -0.606,4.25 c -10e-4,0.003 -1.361,0.003 -1.361,0.003 z m 3.207,0.02 H 37.82 l 0.963,-5.982 h 1.438 l -0.138,0.867 c 0,0 0.513,-0.943 1.204,-0.943 0.201,0 0.297,0.02 0.297,0.02 -0.204,0.418 -0.387,0.801 -0.574,1.79 -1.073,-0.38 -1.155,1.693 -1.606,4.248 z M 44.133,27.901 44.2,27.35 c 0,0 -0.512,0.646 -1.438,0.646 -1.283,0 -1.912,-1.239 -1.912,-2.505 0,-1.958 1.178,-3.665 2.592,-3.665 0.91,0.002 1.491,0.805 1.491,0.805 l 0.334,-2.065 1.547,-0.003 -1.18,7.338 z m 3.052,-0.207 c -0.041,0.074 -0.099,0.131 -0.173,0.175 -0.073,0.041 -0.151,0.062 -0.233,0.062 -0.08,0 -0.157,-0.021 -0.231,-0.062 -0.074,-0.044 -0.132,-0.101 -0.173,-0.175 -0.042,-0.075 -0.062,-0.151 -0.062,-0.232 0,-0.082 0.021,-0.16 0.062,-0.234 0.041,-0.074 0.102,-0.134 0.175,-0.174 0.076,-0.041 0.151,-0.062 0.229,-0.062 0.08,0 0.156,0.021 0.23,0.062 0.076,0.041 0.134,0.098 0.176,0.174 0.043,0.075 0.062,0.153 0.062,0.234 0,0.081 -0.02,0.158 -0.062,0.232 z"
             inkscape:connector-curvature="0" />
        </g>
      </g>
      <g
         id="g111">
        <g
           id="g109">
          <path
             id="path107"
             d="m 47.061,32.117 c -0.01,-0.007 -0.019,-0.018 -0.035,-0.024 -0.016,-0.006 -0.041,-0.009 -0.08,-0.009 h -0.094 v 0.15 h 0.1 c 0.047,0 0.078,-0.004 0.096,-0.021 0.017,-0.014 0.025,-0.031 0.025,-0.055 0,-0.016 -0.004,-0.027 -0.012,-0.041 z"
             inkscape:connector-curvature="0" />
        </g>
      </g>
      <g
         id="g117">
        <g
           id="g115">
          <path
             id="path113"
             d="m 47.384,32.027 c -0.043,-0.078 -0.102,-0.133 -0.177,-0.174 -0.075,-0.041 -0.151,-0.062 -0.229,-0.062 -0.08,0 -0.156,0.021 -0.23,0.062 -0.074,0.041 -0.135,0.098 -0.176,0.174 -0.043,0.074 -0.062,0.152 -0.062,0.232 0,0.08 0.021,0.159 0.062,0.232 0.043,0.074 0.101,0.134 0.174,0.175 0.074,0.041 0.152,0.062 0.234,0.062 0.08,0 0.158,-0.021 0.231,-0.062 0.073,-0.041 0.132,-0.101 0.173,-0.175 0.042,-0.073 0.062,-0.151 0.062,-0.232 0,-0.081 -0.021,-0.159 -0.062,-0.232 z m -0.288,0.492 v 0 L 47.052,32.44 c -0.035,-0.062 -0.064,-0.103 -0.086,-0.119 -0.014,-0.01 -0.036,-0.018 -0.064,-0.018 h -0.047 v 0.215 h -0.082 v -0.505 h 0.174 c 0.06,0 0.103,0.005 0.127,0.015 0.027,0.01 0.05,0.024 0.064,0.049 0.016,0.023 0.023,0.048 0.023,0.074 0,0.037 -0.014,0.068 -0.039,0.097 -0.026,0.026 -0.062,0.043 -0.105,0.046 0.018,0.006 0.032,0.016 0.043,0.027 0.021,0.02 0.045,0.053 0.075,0.099 l 0.062,0.099 z"
             inkscape:connector-curvature="0" />
        </g>
      </g>
      <g
         id="g123">
        <g
           id="g121">
          <path
             id="path119"
             d="m 11.022,25.211 c -1.131,0 -1.36,0.508 -1.36,0.931 0,0.218 0.125,0.582 0.604,0.582 0.929,0 1.122,-1.218 1.092,-1.477 -0.044,-0.009 -0.072,-0.035 -0.336,-0.036 z"
             inkscape:connector-curvature="0" />
        </g>
      </g>
      <g
         id="g129">
        <g
           id="g127">
          <path
             id="path125"
             d="m 22.711,23.144 c -0.841,0 -1.003,0.957 -1.003,1.058 h 1.713 c 0,-0.077 0.161,-1.058 -0.71,-1.058 z"
             inkscape:connector-curvature="0" />
        </g>
      </g>
      <g
         id="g135">
        <g
           id="g133">
          <path
             id="path131"
             d="m 43.709,23.311 c -0.679,0 -1.216,0.788 -1.215,1.985 0,0.73 0.26,1.198 0.816,1.198 0.836,0 1.239,-1.091 1.239,-1.904 0,-0.897 -0.285,-1.279 -0.84,-1.279 z"
             inkscape:connector-curvature="0" />
        </g>
      </g>
      <g
         id="g141">
        <g
           id="g139">
          <path
             id="path137"
             d="m 47.115,27.268 c -0.035,-0.062 -0.084,-0.11 -0.146,-0.145 -0.062,-0.035 -0.125,-0.052 -0.191,-0.052 -0.064,0 -0.129,0.018 -0.191,0.052 -0.062,0.032 -0.111,0.082 -0.146,0.145 -0.035,0.063 -0.053,0.13 -0.053,0.195 0,0.067 0.018,0.133 0.051,0.194 0.037,0.062 0.084,0.109 0.146,0.146 0.062,0.034 0.126,0.054 0.193,0.054 0.067,0 0.133,-0.02 0.193,-0.054 0.062,-0.035 0.11,-0.083 0.146,-0.146 0.035,-0.062 0.051,-0.127 0.051,-0.194 0,-0.066 -0.018,-0.132 -0.053,-0.195 z M 46.898,27.72 46.853,27.642 C 46.818,27.579 46.79,27.539 46.769,27.524 46.752,27.511 46.732,27.505 46.703,27.505 h -0.046 v 0.214 h -0.084 v -0.504 h 0.175 c 0.059,0 0.103,0.005 0.128,0.016 0.025,0.009 0.047,0.026 0.064,0.048 0.017,0.022 0.023,0.047 0.023,0.074 0,0.037 -0.014,0.068 -0.04,0.096 -0.026,0.029 -0.062,0.041 -0.104,0.046 0.02,0.008 0.033,0.017 0.043,0.026 0.021,0.021 0.045,0.051 0.074,0.099 l 0.062,0.1 c 0,0 -0.1,0 -0.1,0 z"
             inkscape:connector-curvature="0" />
        </g>
      </g>
      <g
         id="g147">
        <g
           id="g145">
          <path
             id="path143"
             d="m 36.039,25.211 c -1.131,0 -1.36,0.508 -1.36,0.931 0,0.218 0.124,0.582 0.604,0.582 0.929,0 1.121,-1.218 1.092,-1.477 -0.045,-0.009 -0.073,-0.035 -0.336,-0.036 z"
             inkscape:connector-curvature="0" />
        </g>
      </g>
      <g
         id="g153">
        <g
           id="g151">
          <path
             id="path149"
             d="m 46.864,27.318 c -0.008,-0.01 -0.019,-0.018 -0.034,-0.025 -0.017,-0.005 -0.042,-0.01 -0.082,-0.01 v 10e-4 h -0.091 v 0.152 h 0.099 c 0.047,0 0.078,-0.006 0.097,-0.021 0.015,-0.015 0.024,-0.034 0.024,-0.056 0,-0.017 -0.004,-0.027 -0.013,-0.041 z"
             inkscape:connector-curvature="0" />
        </g>
      </g>
      <g
         id="g155" />
      <g
         id="g157" />
      <g
         id="g159" />
      <g
         id="g161" />
      <g
         id="g163" />
      <g
         id="g165" />
      <g
         id="g167" />
      <g
         id="g169" />
      <g
         id="g171" />
      <g
         id="g173" />
      <g
         id="g175" />
      <g
         id="g177" />
      <g
         id="g179" />
      <g
         id="g181" />
      <g
         id="g183" />
    </g>
  </g>
</svg>
