<?xml version="1.0" encoding="UTF-8" standalone="no"?>
<!-- Generator: Adobe Illustrator 19.0.0, SVG Export Plug-In . SVG Version: 6.00 Build 0)  -->

<svg
   xmlns:dc="http://purl.org/dc/elements/1.1/"
   xmlns:cc="http://creativecommons.org/ns#"
   xmlns:rdf="http://www.w3.org/1999/02/22-rdf-syntax-ns#"
   xmlns:svg="http://www.w3.org/2000/svg"
   xmlns="http://www.w3.org/2000/svg"
   xmlns:sodipodi="http://sodipodi.sourceforge.net/DTD/sodipodi-0.dtd"
   xmlns:inkscape="http://www.inkscape.org/namespaces/inkscape"
   version="1.1"
   id="Capa_1"
   x="0px"
   y="0px"
   viewBox="0 0 2152.53 717.51"
   xml:space="preserve"
   sodipodi:docname="visa.svg"
   inkscape:version="0.92.2 (5c3e80d, 2017-08-06)"
   width="45"
   height="15"><metadata
     id="metadata67"><rdf:RDF><cc:Work
         rdf:about=""><dc:format>image/svg+xml</dc:format><dc:type
           rdf:resource="http://purl.org/dc/dcmitype/StillImage" /><dc:title></dc:title></cc:Work></rdf:RDF></metadata><defs
     id="defs65" /><sodipodi:namedview
     pagecolor="#ffffff"
     bordercolor="#666666"
     borderopacity="1"
     objecttolerance="10"
     gridtolerance="10"
     guidetolerance="10"
     inkscape:pageopacity="0"
     inkscape:pageshadow="2"
     inkscape:window-width="1920"
     inkscape:window-height="1017"
     id="namedview63"
     showgrid="false"
     inkscape:zoom="19.734917"
     inkscape:cx="15.281142"
     inkscape:cy="12.625449"
     inkscape:window-x="-8"
     inkscape:window-y="-8"
     inkscape:window-maximized="1"
     inkscape:current-layer="Capa_1"
     units="px" /><g
     id="g84"
     transform="matrix(44.830942,0,0,48.57118,4.9489981,-801.84293)"
     fill="#ffffff"
     ><g
       id="g6"><g
         id="g4"><polygon
           id="polygon2"
           points="19.153,16.799 16.722,31.065 20.61,31.065 23.043,16.799 " /></g></g><g
       id="g12"><g
         id="g10"><path
           id="path8"
           d="M 13.462,16.815 9.654,26.544 9.248,25.075 C 8.497,23.305 6.365,20.763 3.862,19.161 l 3.482,11.897 4.114,-0.007 6.123,-14.239 z"
           inkscape:connector-curvature="0" /></g></g><g
       id="g18"><g
         id="g16"><path
           id="path14"
           d="M 7.772,17.836 C 7.546,16.967 6.891,16.708 6.078,16.677 H 0.05 L 0,16.961 c 4.691,1.138 7.795,3.88 9.083,7.177 z"
           inkscape:connector-curvature="0" /></g></g><g
       id="g24"><g
         id="g22"><path
           id="path20"
           d="m 30.923,19.534 c 1.272,-0.02 2.194,0.258 2.91,0.546 l 0.351,0.165 0.526,-3.092 c -0.77,-0.289 -1.977,-0.599 -3.483,-0.599 -3.842,0 -6.55,1.935 -6.571,4.708 -0.025,2.049 1.929,3.193 3.405,3.876 1.515,0.7 2.023,1.145 2.016,1.77 -0.012,0.955 -1.208,1.393 -2.325,1.393 -1.557,0 -2.384,-0.215 -3.661,-0.747 l -0.501,-0.228 -0.547,3.193 c 0.91,0.399 2.589,0.742 4.332,0.76 4.087,0 6.743,-1.912 6.771,-4.875 0.017,-1.621 -1.02,-2.858 -3.267,-3.873 -1.36,-0.662 -2.192,-1.102 -2.184,-1.77 0,-0.593 0.706,-1.227 2.228,-1.227 z"
           inkscape:connector-curvature="0" /></g></g><g
       id="g30"><g
         id="g28"><path
           id="path26"
           d="m 44.688,16.815 h -3.004 c -0.933,0 -1.627,0.254 -2.037,1.184 l -5.773,13.074 h 4.083 c 0,0 0.666,-1.758 0.817,-2.143 0.447,0 4.414,0.006 4.979,0.006 0.116,0.498 0.474,2.137 0.474,2.137 h 3.607 z m -4.795,9.195 c 0.32,-0.819 1.549,-3.987 1.549,-3.987 -0.021,0.039 0.317,-0.825 0.518,-1.362 l 0.262,1.23 c 0,0 0.745,3.406 0.901,4.119 z"
           inkscape:connector-curvature="0" /></g></g></g><g
     id="g32"
     transform="translate(0,669.676)" /><g
     id="g34"
     transform="translate(0,669.676)" /><g
     id="g36"
     transform="translate(0,669.676)" /><g
     id="g38"
     transform="translate(0,669.676)" /><g
     id="g40"
     transform="translate(0,669.676)" /><g
     id="g42"
     transform="translate(0,669.676)" /><g
     id="g44"
     transform="translate(0,669.676)" /><g
     id="g46"
     transform="translate(0,669.676)" /><g
     id="g48"
     transform="translate(0,669.676)" /><g
     id="g50"
     transform="translate(0,669.676)" /><g
     id="g52"
     transform="translate(0,669.676)" /><g
     id="g54"
     transform="translate(0,669.676)" /><g
     id="g56"
     transform="translate(0,669.676)" /><g
     id="g58"
     transform="translate(0,669.676)" /><g
     id="g60"
     transform="translate(0,669.676)" /></svg>